<svg xmlns="http://www.w3.org/2000/svg" fill="none" viewBox="0 0 720 405">
  <g clip-path="url(#a)">
    <path fill="#41B653" d="M0 0h720v405H0z"/>
    <g clip-path="url(#b)">
      <path stroke="#F8F294" stroke-linecap="round" stroke-linejoin="round" stroke-miterlimit="1.5" stroke-width="4.68" d="m319.75.81-112.6-55.6"/>
      <path stroke="#F8F294" stroke-linecap="round" stroke-linejoin="round" stroke-width="4.68" d="m624.42 39.21 34.03-14.9-14.73-34.1m-45.9-18.39-34.03 14.9 14.73 34.1m57.36-42.45-49.52 54.29M597.78 449.3l79.43-21.28m-29.09-10 9.43 35.2m-37.58-27.65 9.43 35.2M566 429.25l12.47-3.34a3.18 3.18 0 0 1 3.4 1.2l37.49 51.47a3.18 3.18 0 0 0 3.39 1.2l49.67-13.31m-85.6-32.56 87.85-23.55a3.18 3.18 0 0 1 3.99 3.42l-3.64 33.2a3.18 3.18 0 0 1-2.34 2.71l-62.25 16.69-23.61-32.47Z"/>
      <path stroke="#F8F294" stroke-width="4.68" d="M92.47 58.28C88.8 40.92 71.85 29.63 54.4 32.8c-18.02 3.26-29.5 21.38-25.76 39.23l9.09 43.34a3.4 3.4 0 0 0 5.23 2.06l36.72-26.27A32.32 32.32 0 0 0 92.51 58.3l-.04-.03Z"/>
      <path stroke="#F8F294" stroke-width="4.68" d="M73.8 69.4a13.81 13.81 0 0 1-17.78 8.11 13.81 13.81 0 0 1-8.27-17.7 13.81 13.81 0 0 1 17.77-8.1A13.81 13.81 0 0 1 73.8 69.4Z"/>
      <path fill="#F8F294" d="M547.43 178.88a.59.59 0 0 1 1.01 0l6.52 11.28a.59.59 0 0 1-.51.88h-13.03a.59.59 0 0 1-.5-.88l6.5-11.28ZM591.7 202.91c.46 0 .74.5.51.88l-6.51 11.29a.59.59 0 0 1-1.02 0l-6.51-11.29a.59.59 0 0 1 .5-.88h13.04ZM517.04 202.91c.45 0 .74.5.51.88l-6.51 11.29a.58.58 0 0 1-1.02 0l-6.51-11.29a.59.59 0 0 1 .5-.88h13.03ZM548.44 276.47a.59.59 0 0 1-1.01 0l-6.52-11.28a.59.59 0 0 1 .51-.88h13.03c.45 0 .73.49.5.88l-6.5 11.28ZM504.01 253.83a.59.59 0 0 1-.5-.87l6.51-11.29c.23-.39.79-.39 1.02 0l6.51 11.29a.58.58 0 0 1-.5.87H504ZM578.68 253.83a.59.59 0 0 1-.51-.87l6.51-11.29c.23-.39.8-.39 1.02 0l6.51 11.29a.59.59 0 0 1-.5.87h-13.03Z"/>
      <circle cx="547.71" cy="227.68" r="24.84" stroke="#F8F294" stroke-width="4.68"/>
      <path fill="#F8F294" d="m358.64 433.38.4-2.3h-.01l-.39 2.3Zm-31.34 17.55 2.17.88-2.17-.88Zm1.31 24.4-2.06 1.1 2.06-1.1Zm1.16 6.85 2.3.38-2.3-.38Zm-.48 2.87-2.3-.39 2.3.39Zm3.17 6.47 2.3.42.3-1.67-1.48-.8-1.12 2.05ZM330.41 503l2.3.41-2.3-.41Zm1.75 2.8-.64 2.25.64-2.25Zm17.08 4.87.64-2.25-.64 2.25Zm2.97-1.46 2.17.87-2.17-.87Zm4.3-10.83.14-2.34-1.69-.1-.62 1.57 2.17.87Zm6.11-3.83 2.17.89-2.17-.9Zm1.1-2.7-2.16-.88 2.17.89Zm4.58-5.2-1.16-2.02 1.16 2.03Zm13.3-17 2.26.64-2.25-.64Zm-3.33-23.24-1.98 1.25 1.98-1.25Zm-19.66 25.5-2.12-1-.04.08-.02.07 2.18.86Zm0-2.07-2.13.97 2.14-.97Zm-1.56-1.35.65-2.25-.65 2.25Zm-8.88-2.55-.64 2.25.64-2.25Zm-2.04.32-1.3-1.95 1.3 1.95Zm-1.09 1.76 2.3.4.02-.06v-.06l-2.32-.28ZM362 408.2a2.34 2.34 0 1 0-4.67.4l4.67-.4Zm-3.53 14.35a2.34 2.34 0 1 0 4.67-.4l-4.67.4Zm33.62 4.92a2.34 2.34 0 0 0-2.86-3.7l2.86 3.7Zm-13.6 4.55a2.34 2.34 0 1 0 2.87 3.7l-2.86-3.7ZM380 414.9a2.34 2.34 0 0 0-3.95-2.52l3.95 2.52Zm-11.24 8.9a2.34 2.34 0 1 0 3.95 2.51l-3.95-2.51Zm-23.6-13.62a2.34 2.34 0 0 0-4.25 1.97l4.25-1.97Zm1.72 14.82a2.34 2.34 0 1 0 4.25-1.97l-4.25 1.97Zm12.15 6.07a31.15 31.15 0 0 0-33.9 18.99l4.34 1.75a26.46 26.46 0 0 1 28.78-16.12l.78-4.62Zm-33.9 18.99a31.07 31.07 0 0 0 1.42 26.38l4.12-2.22a26.39 26.39 0 0 1-1.2-22.41l-4.34-1.75Zm1.42 26.38c.89 1.66 1.2 3.56.9 5.36l4.63.76c.47-2.83-.03-5.79-1.4-8.34l-4.13 2.22Zm.91 5.35-.48 2.87 4.62.77.48-2.87-4.62-.77Zm-.48 2.87a8.55 8.55 0 0 0 4.37 8.92l2.23-4.11a3.87 3.87 0 0 1-1.98-4.04l-4.62-.77Zm3.18 6.45-2.05 11.47 4.6.83 2.06-11.47-4.61-.83Zm-2.05 11.47a4.8 4.8 0 0 0 3.4 5.47l1.3-4.5a.12.12 0 0 1-.1-.14l-4.6-.83Zm3.4 5.47 17.1 4.87 1.27-4.5-17.08-4.87-1.28 4.5Zm17.09 4.87a4.8 4.8 0 0 0 5.78-2.84l-4.35-1.73a.12.12 0 0 1-.14.07l-1.29 4.5Zm5.78-2.84 4.3-10.84-4.34-1.73-4.3 10.84 4.34 1.72Zm2-9.36a8.56 8.56 0 0 0 8.4-5.28l-4.32-1.79a3.87 3.87 0 0 1-3.81 2.4l-.27 4.67Zm8.4-5.29 1.11-2.68-4.33-1.78-1.1 2.69 4.33 1.77Zm1.11-2.68a8.43 8.43 0 0 1 3.58-4.06l-2.33-4.06a13.11 13.11 0 0 0-5.58 6.34l4.33 1.78Zm3.58-4.06a30.9 30.9 0 0 0 14.39-18.4l-4.5-1.29a26.23 26.23 0 0 1-12.22 15.63l2.33 4.06Zm14.39-18.4a31.14 31.14 0 0 0-3.61-25.13l-3.96 2.5c4 6.35 5.12 14.13 3.07 21.34l4.5 1.29Zm-3.61-25.13a30.87 30.87 0 0 0-21.22-14.09l-.78 4.62a26.2 26.2 0 0 1 18.04 11.97l3.96-2.5Zm-28.97 51.93 9.5-24.32-4.35-1.7-9.51 24.32 4.36 1.7Zm9.44-24.18c.6-1.28.61-2.75.03-4.04l-4.26 1.94v.1l4.23 2Zm.03-4.03a4.8 4.8 0 0 0-3.05-2.64l-1.3 4.5c.04.01.07.04.09.07l4.26-1.93Zm-3.06-2.64-8.87-2.55-1.3 4.5 8.88 2.55 1.3-4.5Zm-8.87-2.55a4.81 4.81 0 0 0-3.98.62l2.58 3.9a.13.13 0 0 1 .1-.01l1.3-4.5Zm-3.99.62a4.8 4.8 0 0 0-2.11 3.43l4.64.56c0-.04.03-.07.06-.09l-2.59-3.9Zm-2.1 3.31-4.52 25.99 4.6.8 4.54-25.99-4.62-.8Zm14.6-59.03.57 6.97.57 6.99 4.67-.4-.57-6.96-.57-6.99-4.67.4Zm31.9 15.17-5.36 4.13c-1.8 1.37-3.58 2.75-5.37 4.13l2.86 3.7 5.36-4.12 5.37-4.13-2.86-3.7Zm-13.18-11.38a3621.05 3621.05 0 0 1-7.29 11.42l3.95 2.51 3.64-5.7 3.65-5.71-3.95-2.52Zm-35.14-.23 2.99 6.43 2.98 6.42 4.25-1.97-2.99-6.43-2.98-6.42-4.25 1.97Zm-7.83 82.61 24.85 6.66 1.21-4.52-24.84-6.66-1.22 4.52ZM-57.8 170.69l-1.8-1.5 1.8 1.5Zm-.71 54.77 1.84-1.44-1.84 1.44Zm33.22 16.87-.07 2.34.07-2.34Zm9.93 3.7 1.49-1.8v-.01l-1.49 1.8Zm3.42 2.82-1.49 1.8 1.5-1.8Zm10.98.75 1.5-1.8-1.28-1.08-1.44.88 1.22 2Zm13.58 11.45 1.52-1.78-1.52 1.78Zm5.04-.17 1.63 1.68-1.63-1.68Zm19.46-18.85-1.63-1.68 1.63 1.68Zm.33-5.03 1.84-1.45-1.84 1.45Zm-11.02-13.94-1.96-1.28-.92 1.4 1.04 1.33 1.84-1.45Zm-.4-11 1.85-1.43-1.85 1.43Zm-2.71-3.5-1.86 1.42 1.86-1.43Zm-3.38-10.01H17.6h2.34ZM7.62 168l1.68-1.63L7.62 168Zm-33.24-13.31.1 2.34-.1-2.34Zm18.7 45.42-1.93 1.33.04.07.05.06 1.83-1.46Zm-2.73-1.6-.23 2.33.23-2.33Zm-2.99 1.04-1.62-1.69 1.62 1.69Zm-10.13 9.78 1.63 1.69-1.63-1.69Zm-1.14 2.94-2.34.15 2.34-.15Zm1.5 2.78 1.5-1.8-.05-.03-.05-.04-1.4 1.87Zm-66.6-66.9a2.34 2.34 0 1 0-2 4.24l2-4.24Zm17.3 13.37a2.34 2.34 0 0 0 2-4.23l-2 4.23Zm30.4-39.37a2.34 2.34 0 0 0-4.64.63l4.64-.63Zm-1.92 21.1a2.34 2.34 0 0 0 4.64-.62l-4.64.62Zm-23.78-14.31a2.34 2.34 0 0 0-4.15 2.16l4.15-2.16Zm5.37 20.5a2.34 2.34 0 0 0 4.15-2.17l-4.15 2.16Zm-37.19 22.57a2.34 2.34 0 1 0-.42 4.66l.42-4.66Zm21.11 6.59a2.34 2.34 0 0 0 .42-4.67l-.42 4.67Zm18.12-9.42a46.27 46.27 0 0 0-.76 57.72l3.69-2.9a41.59 41.59 0 0 1 .68-51.83l-3.6-2.99Zm-.76 57.72a46.15 46.15 0 0 0 35 17.76l.14-4.68a41.47 41.47 0 0 1-31.45-15.97l-3.69 2.88Zm35 17.76c3.14.1 6.16 1.23 8.51 3.17l2.98-3.62c-3.17-2.6-7.2-4.1-11.35-4.23l-.14 4.68Zm8.51 3.17 3.42 2.81 2.98-3.61-3.42-2.82-2.98 3.62Zm3.42 2.81a11.82 11.82 0 0 0 13.69.94l-2.44-4a7.13 7.13 0 0 1-8.27-.55l-2.98 3.61Zm10.96.73 13.59 11.46 3.01-3.57L.55 247.8l-3.02 3.57Zm13.58 11.46a6.1 6.1 0 0 0 8.18-.28l-3.25-3.36c-.53.5-1.35.54-1.9.07l-3.03 3.57Zm8.18-.28 19.46-18.84-3.26-3.37-19.45 18.85 3.25 3.36Zm19.46-18.84a6.1 6.1 0 0 0 .54-8.17l-3.67 2.9c.45.58.4 1.4-.13 1.9l3.26 3.37Zm.54-8.17-11.02-13.94-3.68 2.9 11.03 13.94 3.67-2.9Zm-10.9-11.2a11.82 11.82 0 0 0-.51-13.72l-3.7 2.86a7.14 7.14 0 0 1 .3 8.28l3.9 2.57Zm-.51-13.72-2.71-3.5-3.7 2.85 2.7 3.52 3.7-2.87Zm-2.71-3.5a14.08 14.08 0 0 1-2.9-8.58H17.6c0 4.13 1.36 8.19 3.86 11.43l3.71-2.86Zm-2.9-8.58A45.91 45.91 0 0 0 9.3 166.38l-3.36 3.25a41.23 41.23 0 0 1 11.66 28.91l4.68.01ZM9.3 166.38a46.27 46.27 0 0 0-35-14.02l.17 4.68a41.6 41.6 0 0 1 31.47 12.6l3.36-3.26Zm-35-14.02a45.86 45.86 0 0 0-33.9 16.83l3.6 2.99a41.18 41.18 0 0 1 30.47-15.14l-.18-4.68Zm45.47 77.4-24.87-31.1-3.66 2.92 24.88 31.1 3.65-2.92ZM-5 198.78a6.1 6.1 0 0 0-4.42-2.59l-.45 4.66c.42.04.8.26 1.03.6l3.84-2.67Zm-4.42-2.59a6.1 6.1 0 0 0-4.83 1.68l3.25 3.37c.3-.29.71-.43 1.13-.39l.45-4.66Zm-4.83 1.69-10.13 9.78 3.25 3.37 10.13-9.79-3.25-3.37Zm-10.13 9.78a6.1 6.1 0 0 0-1.86 4.77l4.68-.29c-.03-.42.13-.82.43-1.11l-3.25-3.37Zm-1.86 4.77a6.1 6.1 0 0 0 2.43 4.5l2.81-3.74a1.42 1.42 0 0 1-.56-1.05l-4.68.29Zm2.34 4.43 30.86 25.8 3-3.6-30.86-25.8-3 3.6Zm-67.1-64.46c3.22 1.51 6.43 3.04 9.65 4.56l9.65 4.57 2-4.23-9.64-4.57-9.66-4.57-2 4.24Zm45.06-29.61 1.36 10.23 1.36 10.24 4.64-.62-1.36-10.23-1.36-10.25-4.64.63Zm-25.21 8.32 4.76 9.16c1.58 3.06 3.16 6.11 4.76 9.17l4.15-2.16-4.76-9.16-4.76-9.17-4.15 2.16Zm-28.09 45.57 10.77.97 10.76.96.42-4.67-10.76-.96-10.77-.96-.42 4.66Zm102.17 73.7 27.74-27.75-3.32-3.3-27.73 27.73 3.3 3.31ZM720.51 447.9l-8.26-1.8 7.17-33.03-11.7 1.51 1.54-7.11 20.22-2.77h.38l-9.35 43.2ZM773.64 442.26c-.64 2.8-1.4 5.2-2.55 7.11a14.66 14.66 0 0 1-3.95 4.7 12.32 12.32 0 0 1-5.09 2.28c-1.9.38-3.94.25-6.1-.14a14.8 14.8 0 0 1-5.59-2.3 12.94 12.94 0 0 1-3.67-4.2 16.47 16.47 0 0 1-1.65-5.97c-.25-2.29.01-4.83.65-7.62l2.18-10.3c.64-2.79 1.4-5.2 2.55-7.1a14.64 14.64 0 0 1 3.95-4.7 12.3 12.3 0 0 1 5.08-2.28c1.91-.38 3.94-.25 6.1.14 2.16.5 4.07 1.27 5.6 2.42a12.93 12.93 0 0 1 3.67 4.2c.89 1.65 1.4 3.69 1.64 5.97.25 2.3 0 4.83-.64 7.63l-2.18 10.29v-.13Zm-18.92-7.78 13.35-6.08c.51-2.92.52-5.2.01-6.73a4.78 4.78 0 0 0-3.8-3.06c-1.91-.38-3.57 0-4.84 1.26-1.27 1.27-2.3 3.43-2.93 6.48l-1.8 8v.13Zm12.07-.49-13.35 6.08c-.52 2.92-.4 5.08.24 6.6a4.88 4.88 0 0 0 3.8 2.94c1.91.38 3.57 0 4.84-1.27s2.3-3.55 2.93-6.6l1.67-7.75h-.13ZM810.83 467.48l-8.25-1.79 7.17-33.03-11.7 1.5 1.54-7.1 20.2-2.77h.39l-9.35 43.2ZM799.7 518.8l-8.26-1.79 7.17-33.03-11.7 1.5 1.54-7.1 20.21-2.77h.38l-9.34 43.2ZM717.4 483.73c-.64 2.79-1.4 5.2-2.55 7.1a14.66 14.66 0 0 1-3.95 4.7 12.32 12.32 0 0 1-5.08 2.28 16.51 16.51 0 0 1-11.69-2.43 12.94 12.94 0 0 1-3.68-4.2 16.49 16.49 0 0 1-1.64-5.98c-.25-2.28 0-4.82.65-7.62l2.17-10.29c.64-2.8 1.4-5.2 2.56-7.11a14.64 14.64 0 0 1 3.94-4.7 12.3 12.3 0 0 1 5.09-2.28c1.9-.37 3.94-.24 6.1.14 2.16.39 4.06 1.28 5.59 2.42a12.93 12.93 0 0 1 3.68 4.2c.88 1.66 1.39 3.7 1.64 5.98.25 2.29-.01 4.83-.65 7.62l-2.18 10.3v-.13Zm-19.04-7.79 13.35-6.07c.51-2.93.51-5.21 0-6.74a4.78 4.78 0 0 0-3.8-3.06c-1.9-.38-3.56 0-4.83 1.27s-2.3 3.43-2.93 6.47l-1.8 8v.13Zm12.07-.49-13.35 6.08c-.52 2.93-.4 5.09.24 6.61a4.88 4.88 0 0 0 3.8 2.93c1.91.38 3.56 0 4.84-1.26 1.27-1.27 2.3-3.56 2.93-6.6l1.66-7.75h-.12ZM754.6 508.95l-8.26-1.8 7.17-33.02-11.7 1.5 1.54-7.11 20.21-2.76h.39l-9.35 43.19Z"/>
      <circle cx="13.95" cy="15.83" r="6.82" stroke="#F8F294" stroke-width="4.68"/>
      <circle cx="707.48" cy="87.85" r="9.16" fill="#F8F294"/>
      <circle cx="707.48" cy="60.37" r="6.82" stroke="#F8F294" stroke-width="4.68"/>
      <circle cx="707.48" cy="115.32" r="6.82" stroke="#F8F294" stroke-width="4.68"/>
      <circle cx="680.01" cy="87.85" r="9.16" fill="#F8F294"/>
      <circle cx="652.54" cy="87.85" r="6.82" stroke="#F8F294" stroke-width="4.68"/>
      <circle cx="680.01" cy="142.79" r="9.16" fill="#F8F294"/>
      <circle cx="680.01" cy="197.73" r="9.16" fill="#F8F294"/>
      <circle cx="680.01" cy="115.32" r="9.16" fill="#F8F294"/>
      <circle cx="652.54" cy="142.79" r="9.16" fill="#F8F294"/>
      <circle cx="652.54" cy="170.26" r="6.82" stroke="#F8F294" stroke-width="4.68"/>
      <circle cx="597.6" cy="142.79" r="9.16" fill="#F8F294"/>
      <path stroke="#F8F294" stroke-width="4.68" d="m389.96 325.84-23.47 26.34a2.91 2.91 0 0 0 1.62 4.8l12.87 2.38a2.96 2.96 0 0 1 2.1 4.12l-7.48 15.78c-.85 1.8 1.38 3.47 2.85 2.06l27.14-25.27a2.9 2.9 0 0 0-1.19-4.94l-13.93-3.92a2.84 2.84 0 0 1-2-3.61l4.6-16.09c.47-1.89-1.78-3.16-3.1-1.72l-.01.07Z"/>
      <path stroke="#F8F294" stroke-linejoin="round" stroke-width="4.68" d="M273.58 350.24c.52.85 1.91.85 2.43 0 2.98-4.9 11.47-16.11 26.04-14.43 18.54 2.14 26.76 21.9 21.44 39.37-5.08 16.33-42.55 44.82-48.03 48.92-.41.3-.92.3-1.33 0-5.48-4.12-42.95-32.74-48.03-48.92-5.49-17.63 2.74-37.4 21.44-39.37 14.56-1.68 23.06 9.54 26.04 14.43ZM173.16-37.03c-3-1.93-6.73.27-6.73 3.7v43.97a.7.7 0 0 1-.8.15 26.93 26.93 0 0 0-16.48-2.96h-.02c-11.91 1.7-21.31 11.53-22.83 23.48v.02c-1.97 16.84 11.53 31.3 28.15 30.38 14.57-.78 25.42-13.57 25.42-28V-15.7a.48.48 0 0 1 .16-.14 1 1 0 0 1 .73-.14c3.56.86 7.36.59 10.84-.88 3-1.18 3.07-5.08.77-6.73l-.03-.02-18.73-13.07a3.25 3.25 0 0 0-.45-.36ZM457.58 355.08l-.06.03a6.44 6.44 0 0 0-3.11 7.27l12.65 47.43c.04.16.03.39-.23.67-.28.3-.7.49-1.1.48-2.52-.04-5.07.34-7.62 1.18l-.04.01a22.27 22.27 0 0 0-14.55 24v.02a22.21 22.21 0 0 0 28.74 17.8h.02c11.38-3.72 17.36-16.02 14.35-27.34l-12.88-48.27a.52.52 0 0 1 .27-.6l61.05-32.27c.32-.17.7 0 .78.33l6.52 24.44c.05.16.03.4-.23.68-.27.3-.7.48-1.1.48-2.5-.04-5.06.34-7.61 1.17l-.05.02a22.27 22.27 0 0 0-14.57 23.87c1.97 13.68 15.79 21.95 28.74 17.83h.02c11.38-3.72 17.36-16.02 14.34-27.34l-18.35-68.8a6.43 6.43 0 0 0-9.26-4h-.02l-76.7 40.9Z"/>
      <path fill="#F8F294" d="M85.42 229.73c-.27 1-.67 1.74-1.18 2.47a5.51 5.51 0 0 1-1.66 1.71 4.1 4.1 0 0 1-2.02.83c-.75.11-1.5-.03-2.37-.18-.87-.14-1.24-.52-1.73-.9-.49-.4-.73-.9-1.09-1.53l-2 6.07-3.35-1.07 6.02-17.85 3.1 1.07-.28 1.37c.5-.37 1.13-.6 1.76-.59.62.02 1.24.03 1.99.3a5.2 5.2 0 0 1 1.97 1.17 4.7 4.7 0 0 1 1.08 1.9c.23.75.34 1.5.32 2.37-.02.88-.29 1.87-.56 2.74v.25-.13Zm-3.34-1.32.4-1.62c.14-.5.03-1 .04-1.37 0-.37-.23-.75-.6-1.14a2.03 2.03 0 0 0-1.11-.65c-.5-.13-1.12-.27-1.5-.03-.5-.01-.88.36-1.14.72l-1.74 5.46c-.02.5.23.88.6 1.26.36.39.73.64 1.35.9.61.27.87.15 1.24.03.38-.11.76-.23 1.14-.6.38-.36.64-.6.9-1.1.26-.5.52-.99.66-1.48v-.25l-.24-.13ZM99.97 227.06c.5.14.98.4 1.36.53.37.14.74.4.98.53l-1.56 3.08a5.83 5.83 0 0 0-1.24-.65c-.37-.13-.86-.4-1.23-.53-1-.27-1.74-.41-2.37-.18-.63.24-1.27.6-1.78 1.09l-2.54 7.8-3.35-1.07 4.28-12.89 3.1 1.07-.55 2.11c.77-.6 1.65-.96 2.53-1.06a6.18 6.18 0 0 1 2.62.05l-.25.12ZM106.15 229.45l7.06 2.4-3.47 10.17 3.47 1.2-.94 2.72-10.53-3.48.93-2.72 3.72 1.2 2.54-7.56-3.72-1.2.94-2.73Zm4.54-2.15c0-.25.26-.49.4-.61.12-.25.37-.37.63-.49.25 0 .5-.11.75-.1.25 0 .5 0 .87.02.62.13.99.52 1.23 1.02s.23.88.09 1.5-.52.86-.9 1.1c-.5.24-1 .23-1.62-.03-.62-.27-.5-.26-.74-.4-.25-.12-.37-.38-.5-.5.02-.25-.23-.38-.23-.63l.02-.75v-.13ZM123 235.07l-.4 1.87c.63-.49 1.38-.84 2.14-.95.75-.11 1.62.03 2.36.17.75.15 1.24.53 1.73.92.5.38.86.9 1.1 1.4.23.5.34 1.13.33 1.88a6.1 6.1 0 0 1-.43 2.48l-2.68 7.94-3.35-1.08 2.68-7.93c.13-.5.27-1 .28-1.37 0-.37.01-.62-.23-1-.24-.38-.36-.5-.6-.64-.26-.13-.62-.39-1-.4-.62-.14-1.12-.27-1.62-.03-.5-.01-.88.35-1.26.6l-3.08 9.16-3.35-1.07 4.29-12.89 2.97 1.07.13-.13ZM141.8 237.87l-1.07 3.22 4.83 1.6-.8 2.49-4.84-1.6-1.87 5.57c-.14.5-.27.87-.28 1.24 0 .38-.01.63.23.88.12.25.37.5.61.64.25.13.62.26.87.4.24.12.5.13.74.26.25.13.5.01.75.14l.75.02.62.01-.43 2.36-.87-.01-1.13-.03c-.37 0-.74-.02-1.11-.28-.38 0-.75-.14-1.12-.27a6.55 6.55 0 0 1-1.85-.92c-.5-.38-.86-.89-1.22-1.4a4.14 4.14 0 0 1-.46-1.88c.02-.63.04-1.5.43-2.36l2-5.83-2.97-.94.8-2.48 2.98.94 1.07-3.22 3.35 1.08-.01.37ZM149.76 250.54c.4-1.12.8-2.1 1.32-3.1a21.7 21.7 0 0 1 1.55-2.46c.52-.73 1.16-1.34 1.8-1.95a9.82 9.82 0 0 1 1.9-1.46c.63-.36 1.27-.72 1.77-.96a4.3 4.3 0 0 1 1.63-.34l-.04 2c-.5.24-1.14.47-1.77.96a11.57 11.57 0 0 0-3.72 4.41 15.64 15.64 0 0 0-1.59 3.83v.38a20.63 20.63 0 0 0-1.1 3.97 14.08 14.08 0 0 0-.07 3.25c-.02 1 .2 1.87.44 2.5.24.63.6 1.39.84 1.9l-1.29 1.59c-.37-.38-.73-.77-1.1-1.27-.36-.51-.6-1.14-.95-1.77a9.67 9.67 0 0 1-.58-2.26l-.31-2.63a17.23 17.23 0 0 1 1.01-6.22v-.25l.26-.12ZM172.8 247.68c-.13.38-.4.87-.53 1.24s-.51.74-.9 1.1c-.38.37-.63.61-1.14.98l-1.14.72-1.22-1.4c.5-.36.9-.85 1.28-1.47.4-.62.78-1.23.92-1.98l.67-2.1 2.6.93-.67 2.1.13-.12ZM185.65 270.32l-3.34-1.07 2.54-7.56-4.96-1.61-2.54 7.56-3.35-1.07 5.76-17.36 3.35 1.08-2.4 7.06 4.95 1.61 2.4-7.06 3.35 1.07-5.76 17.35ZM195.2 273.79c-1-.28-1.86-.8-2.6-1.44a8.73 8.73 0 0 1-1.7-2.03 7.51 7.51 0 0 1-.7-2.4c.03-.87.04-1.74.31-2.6l.02-.5c.52-1 .91-1.86 1.55-2.6a8.73 8.73 0 0 1 2.04-1.7c.75-.35 1.51-.59 2.39-.7.87.03 1.74.05 2.61.32.87.27 1.73.79 2.34 1.3.62.51 1.1 1.15 1.46 1.9.36.76.47 1.51.45 2.39a7.26 7.26 0 0 1-.44 2.73l-.53 1.37-8.8-2.95-.03 1.38c0 .37.23.87.47 1.13.25.25.49.63.86 1.02.36.38.73.51 1.23.65.5.13.62.14 1 .27.36.13.62.02.99.02.37.01.62.02 1-.22s.63-.24.89-.48l1.07 2.4c-.26.24-.64.48-1.14.6-.38.1-.88.35-1.38.34l-1.62-.04a5.54 5.54 0 0 1-1.87-.42l.12.26Zm3.1-10.8c-.37 0-.74-.14-1.12-.02-.37-.01-.75.1-1 .35-.26.24-.64.36-.9.73-.25.37-.5.61-.76.98l5.45 1.87v-.25c.14-.37.27-.74.15-1-.12-.25.01-.62-.23-1-.11-.25-.36-.63-.6-.76-.25-.26-.62-.4-1.11-.53l.13-.37ZM210.4 258.27l7.19 2.4-5.22 15.63 3.72 1.2-.94 2.73-10.9-3.62.93-2.72 3.84 1.33 4.28-12.89-3.84-1.33.94-2.73ZM225.14 263.22l7.2 2.4-5.23 15.63 3.72 1.2-.94 2.73-10.9-3.62.93-2.72 3.84 1.33 4.29-12.89-3.84-1.33.93-2.73ZM234.65 279.54c.27-.99.78-1.73 1.3-2.47a6.28 6.28 0 0 1 1.91-1.7 4.11 4.11 0 0 1 2.39-.7c.87.02 1.75.04 2.74.32 1 .27 1.73.78 2.47 1.43.6.63 1.09 1.27 1.45 2.03.35.75.46 1.63.44 2.5-.02.88-.04 1.75-.44 2.74v.25c-.4.99-.79 1.73-1.3 2.47a6.3 6.3 0 0 1-1.92 1.7c-.75.36-1.51.72-2.38.7-.88-.02-1.75-.04-2.75-.31a7.8 7.8 0 0 1-2.46-1.3 7.62 7.62 0 0 1-1.46-2.04 5.58 5.58 0 0 1-.44-2.5c.02-.88.04-1.88.44-2.74v-.38Zm3.34 1.33c-.14.5-.28 1.12-.41 1.61l-.04 1.38c0 .37.36.75.6 1.13.25.38.74.52 1.24.78.49.26 1 .15 1.37.03.38-.12.75-.23 1.14-.6.38-.24.63-.6.9-1.1.25-.5.52-.99.65-1.49v-.25c.27-.49.4-.99.42-1.49 0-.5.02-1 .03-1.37 0-.37-.24-.75-.6-1.13a3.02 3.02 0 0 0-1.23-.78c-.62-.27-1-.15-1.38-.03-.37.11-.75.23-1.13.6-.39.36-.64.6-.9 1.1-.26.5-.52.86-.66 1.48v.25-.12ZM251.75 290.8c0-.26.26-.5.4-.75.12-.25.37-.37.63-.48.25-.12.5-.12.75-.24l.87.02c.38.01.5.26.74.4.25.12.37.38.49.63s.11.5.23.75c.12.26 0 .5-.01.75s-.26.5-.4.62c-.12.12-.38.36-.63.48s-.5.12-.75.24l-.88-.02c-.37-.01-.62-.27-.74-.4-.24-.13-.36-.38-.48-.63s-.12-.5-.23-.75c-.12-.26 0-.5.01-.75v.12Zm4.95-3.4-2.98-1.06 3.63-11.4 3.34 1.2-4 11.27ZM275.42 282.08c-.13.38-.4.87-.52 1.24-.14.37-.52.74-.9 1.1-.39.37-.64.62-1.15.98l-1.14.72-1.22-1.4c.51-.36.9-.85 1.29-1.47.38-.49.77-1.23.91-1.98l.68-2.1 2.6.93-.67 2.1.12-.12ZM288.07 297.1c-.4 1.12-.8 2.11-1.32 2.97-.52.86-1.04 1.73-1.68 2.46-.64.74-1.15 1.35-1.79 1.96a9.85 9.85 0 0 1-1.9 1.45c-.64.37-1.27.73-1.9.96-.63.24-1.13.35-1.63.46l.04-2c.5-.23 1.01-.47 1.65-.96.63-.48 1.27-.96 1.9-1.7a17.4 17.4 0 0 0 1.94-2.7 22.6 22.6 0 0 0 1.71-3.84l.01-.37c.53-1.49.94-2.85 1.09-3.97.15-1.25.18-2.37.07-3.25.03-1-.2-1.88-.44-2.5a4.55 4.55 0 0 0-.83-1.77l1.28-1.6c.37.39.73.77 1.1 1.4.35.63.6 1.14.95 1.9.36.75.46 1.5.7 2.26.23.75.2 1.75.31 2.63-.02 1-.04 1.87-.19 3a15.22 15.22 0 0 1-.82 3.22v.25l-.25-.25Z"/>
      <path stroke="#F8F294" stroke-linejoin="round" stroke-width="4.68" d="M473.73 24.3a53.84 53.84 0 1 0 0-107.69m0 107.69a53.84 53.84 0 1 1 0-107.69m0 107.69c16.36 0 29.62-24.1 29.62-53.85 0-29.73-13.26-53.84-29.62-53.84m0 107.69c-16.35 0-29.6-24.1-29.6-53.85 0-29.73 13.25-53.84 29.6-53.84m0 107.69V-83.4m53.84 54.55H419.9m102.27-24.24H425.3M521.46-4.6h-95.45M147.17 201.04a53.84 53.84 0 1 0 0-107.69m0 107.69a53.84 53.84 0 1 1 0-107.69m0 107.69c16.36 0 29.62-24.1 29.62-53.84 0-29.74-13.26-53.85-29.62-53.85m0 107.69c-16.35 0-29.61-24.1-29.61-53.84 0-29.74 13.26-53.85 29.61-53.85m0 107.69V93.35m53.84 54.55H93.34m102.27-24.24H98.74m96.16 48.48H99.45"/>
      <path stroke="#F8F294" stroke-linejoin="round" stroke-miterlimit="2" stroke-width="4.68" d="M722.51 16.14c.14.14.36.14.5 0l23.48-23.48a.35.35 0 0 0 0-.5l-31.41-31.4 7.46-7.47c.1-.1.12-.2.08-.33a.31.31 0 0 0-.26-.23l-46.55-7.65a.32.32 0 0 0-.28.1.32.32 0 0 0-.1.28l7.65 46.55c.02.13.1.22.22.26.13.04.25.01.34-.08l7.46-7.46 31.41 31.41Z"/>
      <path stroke="#F8F294" stroke-linecap="round" stroke-width="4.68" d="m247.26 10.79.01 5.23m.1 48.8.02 5.22m20.84-50.62-3.69 3.7m-34.43 34.59-3.69 3.7m41.9-.1-3.7-3.68M230.04 23.2l-3.7-3.69m50.61 20.84-5.23.01m-48.8.1-5.22.02M241.66-.28h5.84m0 0h5.84m-5.84 0v8.03m31.7 32.6a31.87 31.87 0 1 1-63.74.13 31.87 31.87 0 0 1 63.74-.13Z"/>
      <path stroke="#F8F294" stroke-width="4.68" d="m247 39.9-3.07-6.56 4.78 5.3.05.05.04.04c.42.41.42 1.1 0 1.52-.27.27-.55.35-.78.35-.25-.01-.54-.12-.79-.4l-.03-.03-.03-.03-.03-.03a2 2 0 0 1-.12-.18l-.02-.02Z"/>
      <path stroke="#F8F294" stroke-linecap="round" stroke-width="4.68" d="m751.4 207.55-2.49 4.33m-23.2 40.4-2.5 4.33m41.41-31.9-4.82 1.3m-44.98 12.15-4.82 1.3m34.7 19.93-1.31-4.82m-12.16-44.98-1.3-4.82m31.91 41.4-4.33-2.48m-40.4-23.22-4.33-2.48m39.28-22.27 4.83 2.79m0 0 4.83 2.78m-4.83-2.78-3.84 6.64m10.65 42.1a30.44 30.44 0 1 1-52.78-30.33 30.44 30.44 0 0 1 52.78 30.32Z"/>
      <path stroke="#F8F294" stroke-linecap="round" stroke-width="5.85" d="M213.33 206.12c2.67 5.3 7.97 15.88 14.97 17.76 7 1.88 18.1-11.64 25.1-9.76 7 1.87 9.86 19.13 16.86 21 7 1.88 18.1-11.64 25.1-9.76 7 1.87 10.56 12.8 14.3 20.32"/>
      <path fill="#F8F294" d="M43.79 377.45c.47 0 1.34-.25 1.94-.56a84.55 84.55 0 0 0 9.62-5.76c.99-.73 2.52-.46 3.4.6 1.91 1.56 3.33 6.89 3.16 11.91-.12.82.47 1.87 1.31 2.36.66.49 1.87.48 2.69-.02 2.66-1.24 6.45-5.15 8.47-8.74 4.19-7.46 4.02-16.46 1.8-20.19-1.2-1.98-1.55-4.36-.8-5.32 1.15-1.27 3.84-5.42 6.01-9.27 7.03-9.64 11.88-30.8 10.86-47.25-.08-2.97-.91-8.9-1.88-13.24-.13-1.4-1.5-3.22-3.05-4.08-1.14-.83-3.43-1.02-5.11-.43-2.87.87-8.4 3.28-12.35 5.39-11.1 4.32-26.7 19.55-34.83 34a83.76 83.76 0 0 0-4.8 9.95c-.42 1.13-2.65 2.09-4.97 2.13-4.85-.76-12.19 4.67-16.38 12.14-1.71 2.4-3.07 7.64-3.04 11.73 0 .26.04.52.11.76.09.51.66 1.2 1.28 1.52.69.46 1.9.4 2.72-.13 4.22-2.78 9.38-3.95 11.87-3.6 1.38.18 2.41 1.32 2.32 2.55-.27 1.72-.22 6.7.11 11.13a4.75 4.75 0 0 0 .54 1.94c.48.92 1.2 1.68 2.12 2.2l13.88 7.65a5.2 5.2 0 0 0 3 .63Zm-.3-3.25c-.39.04-.77-.05-1.1-.23l-13.88-7.66a1.95 1.95 0 0 1-.97-1.51c-.37-3.16-.29-9.57.2-14.32.18-4.47 2.16-13.17 4.41-19.45.92-2.91 3.5-8.55 5.77-12.59 7.63-13.58 18.86-24.69 28.83-30.16 2.03-1.11 3.7-2 3.7-2l.07.06a45.57 45.57 0 0 0 1.52 1.2l.64.48.48.36a41.2 41.2 0 0 0 1.16.8l.7.48.49.32.74.48.48.3.84.5.41.25a52.8 52.8 0 0 0 2.56 1.42l.43.21a33.3 33.3 0 0 0 2.17 1.06l.55.25.77.34.55.24.76.31.55.22.78.3.51.18.83.29.45.15.1.04c.02 0 .12 1.87.23 4.16.46 8.9-3.07 26.6-10.71 40.19-1.4 2.75-4.88 7.89-7.77 11.48-2.6 3.64-9.03 9.9-14.36 13.95-2.47 2.05-7.92 5.5-12.18 7.7-.14.09-.46.18-.71.2Z"/>
      <path fill="#F8F294" stroke="#F8F294" stroke-linecap="round" stroke-linejoin="round" stroke-width="1.17" d="M77.09 315.79c-.48-2.6-3.43-6.1-6.6-7.8-2.3-1.64-7.08-2.19-10.7-1.21-2.83.38-6.6 3.25-8.41 6.4a12.9 12.9 0 0 0-1.12 10.6c.48 2.6 3.43 6.1 6.6 7.8 2.3 1.65 7.08 2.2 10.7 1.22 2.82-.39 6.6-3.25 8.42-6.4 1.78-2.28 2.28-7.04 1.1-10.61Zm-10.2 14.8c-2.17.9-6.15.45-8.87-1.01a11.37 11.37 0 0 1-5.48-6.47c-1.06-2.15-.64-6.1.92-8.8.87-2.13 4-4.51 7-5.32 2.17-.9 6.15-.46 8.87 1 2.12.82 4.58 3.72 5.48 6.48 1.06 2.15.64 6.1-.92 8.8-.87 2.13-4 4.5-7 5.32Z"/>
      <path stroke="#F8F294" stroke-linecap="round" stroke-linejoin="round" stroke-width="4.68" d="m32.56 382.63 2.28 16.18c.15 1.01-.39 2-1.3 2.44l-10.42 4.95a2.34 2.34 0 0 0-1.32 2.38l2.08 18.6a2.34 2.34 0 0 1-1.58 2.48L8.32 434.4a2.34 2.34 0 0 0-1.58 2.42l2.06 23.9M26.26 376.17l-13.8 4.4a2.34 2.34 0 0 0-1.63 2.13l-.46 11.02a2.34 2.34 0 0 1-2.08 2.23l-14.97 1.67a2.34 2.34 0 0 0-2.05 1.94l-2.45 14.9c-.16.96-.9 1.72-1.85 1.9l-28.24 5.68"/>
      <path fill="#F8F294" d="M447.06 284.88c.26-.46.5-1.44.54-2.2.23-4.98.07-10.01-.2-12.5-.16-1.36.96-2.69 2.48-2.94 2.57-.98 8.5.62 13.25 3.59.73.56 2.08.58 3.02.04.84-.37 1.5-1.54 1.48-2.6.28-3.27-1.38-9.1-3.72-13.05-4.87-8.22-13.65-13.07-18.5-13-2.57.04-5.07-.94-5.58-2.2-.58-1.82-3.09-6.73-5.6-10.97-5.4-12.16-23.12-28.65-39.58-36.83-2.9-1.59-9.1-4.08-13.83-5.58-1.41-.64-3.94-.34-5.64.68-1.44.64-2.9 2.74-3.27 4.7-.75 3.25-1.5 9.93-1.68 14.92-2.02 13.14 4 36.69 13.42 52.6a93.58 93.58 0 0 0 6.93 10.18c.86 1.04.54 3.73-.72 6-3.43 4.26-2.27 14.37 2.6 22.58 1.36 2.99 5.67 7.23 9.63 9.48.26.15.52.25.8.31.54.2 1.51.03 2.18-.38.83-.41 1.45-1.62 1.38-2.7-.33-5.63 1.43-11.26 3.15-13.48.94-1.23 2.63-1.59 3.75-.81 1.51 1.21 6.36 3.94 10.82 6.1a5.32 5.32 0 0 0 2.17.55c1.16.06 2.3-.22 3.3-.82l15.14-9.13a5.8 5.8 0 0 0 2.28-2.55Zm-3.3-1.53c-.2.4-.48.71-.84.93l-15.14 9.13a2.17 2.17 0 0 1-2 .1c-3.26-1.4-9.4-5.06-13.71-8.18-4.22-2.66-11.53-9.43-16.33-15.1-2.3-2.51-6.31-8.14-8.94-12.59-8.86-14.94-13.33-31.98-13.06-44.67l.12-4.68a.42.42 0 0 1 .1-.04l.57-.22a24.52 24.52 0 0 0 1.44-.57l.83-.35.6-.27a43.2 43.2 0 0 0 1.44-.66l.85-.42.58-.29.88-.45.55-.3.96-.52.46-.26a55.54 55.54 0 0 0 2.8-1.69l.45-.3.9-.59.54-.36a56.92 56.92 0 0 0 1.34-.94l.75-.55.54-.4.73-.57.51-.4.72-.59.47-.4c.16-.13.5-.41.74-.63l.4-.35.1-.08s1.86.93 4.14 2.1c8.84 4.52 23.97 17.8 32.83 32.75 1.88 2.9 4.9 9.12 6.76 13.9 2.07 4.54 4.52 14.24 5.47 21.66.6 3.52.88 10.7.64 16.05.01.18-.08.54-.2.8Z"/>
      <path fill="#F8F294" stroke="#F8F294" stroke-linecap="round" stroke-linejoin="round" stroke-width="1.17" d="M406.07 218.33c-2.77-.99-7.8-.08-11.2 2.03-2.88 1.3-6.07 5.61-7.14 9.65-1.2 2.95-.54 8.18 1.49 11.7a14.4 14.4 0 0 0 9.62 6.99c2.78.99 7.8.08 11.2-2.03 2.88-1.3 6.08-5.61 7.14-9.65 1.2-2.95.55-8.19-1.48-11.7-1.21-3-5.52-6.12-9.63-6.99Zm8.62 18.1c-.34 2.6-3 6.2-5.93 8a12.68 12.68 0 0 1-9.3 1.69c-2.67-.18-6.25-2.78-8-5.8-1.56-2.02-2.12-6.37-1.23-9.72.34-2.6 3-6.2 5.93-8 1.97-1.6 6.13-2.35 9.3-1.69 2.67.18 6.24 2.78 7.99 5.8 1.57 2.02 2.12 6.37 1.24 9.72Z"/>
      <path fill="#F8F294" d="M474.35 104.1a19.46 19.46 0 0 0 19.63-19.37 2.98 2.98 0 0 1 2.96-2.91 2.98 2.98 0 0 1 2.95 2.91 19.46 19.46 0 0 0 19.64 19.38 2.9 2.9 0 0 1 2.95 2.92 2.9 2.9 0 0 1-2.95 2.91 19.46 19.46 0 0 0-19.63 19.38 2.98 2.98 0 0 1-2.96 2.92 2.9 2.9 0 0 1-2.96-2.92 19.46 19.46 0 0 0-19.63-19.38 2.9 2.9 0 0 1-2.96-2.91 2.9 2.9 0 0 1 2.96-2.92ZM520.71 67.93a8.42 8.42 0 0 0 8.52-8.4 1.3 1.3 0 0 1 2.6 0c0 4.66 3.78 8.4 8.51 8.4.71 0 1.3.58 1.3 1.28 0 .7-.59 1.29-1.3 1.29a8.42 8.42 0 0 0-8.51 8.4 1.3 1.3 0 0 1-2.6 0c0-4.67-3.79-8.4-8.52-8.4a1.3 1.3 0 0 1-1.3-1.29c0-.7.6-1.28 1.3-1.28ZM530.05 127.92a8.43 8.43 0 0 0 8.52-8.4 1.3 1.3 0 0 1 2.6 0c0 4.66 3.78 8.4 8.51 8.4.71 0 1.3.58 1.3 1.28 0 .7-.59 1.29-1.3 1.29a8.42 8.42 0 0 0-8.51 8.4c0 .7-.6 1.28-1.3 1.28-.71 0-1.3-.58-1.3-1.28 0-4.67-3.79-8.4-8.52-8.4-.7 0-1.3-.59-1.3-1.29 0-.7.6-1.28 1.3-1.28ZM111.2 362.22c9.76 0 17.61-7.65 17.61-17.16a2.66 2.66 0 0 1 2.65-2.58 2.66 2.66 0 0 1 2.66 2.58c0 9.51 7.85 17.16 17.6 17.16a2.6 2.6 0 0 1 2.66 2.59 2.6 2.6 0 0 1-2.65 2.58c-9.76 0-17.61 7.65-17.61 17.16a2.66 2.66 0 0 1-2.66 2.58 2.6 2.6 0 0 1-2.65-2.58c0-9.51-7.85-17.16-17.61-17.16a2.6 2.6 0 0 1-2.65-2.58 2.6 2.6 0 0 1 2.65-2.59ZM152.79 330.18c4.24 0 7.64-3.31 7.64-7.45 0-.62.53-1.13 1.16-1.13.64 0 1.17.51 1.17 1.13 0 4.14 3.4 7.45 7.64 7.45.64 0 1.17.51 1.17 1.13 0 .62-.53 1.14-1.17 1.14a7.51 7.51 0 0 0-7.64 7.44 1.16 1.16 0 0 1-2.33 0c0-4.13-3.4-7.44-7.64-7.44-.64 0-1.17-.52-1.17-1.14 0-.62.53-1.13 1.17-1.13ZM161.17 383.31c4.24 0 7.64-3.3 7.64-7.44a1.16 1.16 0 0 1 2.33 0c0 4.13 3.4 7.44 7.64 7.44.64 0 1.17.52 1.17 1.14 0 .62-.53 1.13-1.17 1.13a7.51 7.51 0 0 0-7.64 7.45c0 .62-.53 1.14-1.17 1.14-.63 0-1.16-.52-1.16-1.14 0-4.14-3.4-7.45-7.64-7.45-.64 0-1.17-.51-1.17-1.13 0-.62.53-1.14 1.17-1.14ZM348.63 105.46l-14.41 3.14a3.76 3.76 0 0 0-2.87 4.48l.74 3.43a3.76 3.76 0 0 0 4.48 2.87l14.42-3.15a3.76 3.76 0 0 0 2.87-4.47l-.75-3.43a3.76 3.76 0 0 0-4.48-2.87Z"/>
      <path stroke="#F8F294" stroke-linejoin="round" stroke-miterlimit="2" stroke-width="4.68" d="M432.34 110.27a37.17 37.17 0 0 1-25.94 39.26 37.04 37.04 0 0 1-40.4-12.57 11.86 11.86 0 0 0-11.9-4.38l-13.14 2.87c-4.45.98-7.9 4.4-8.98 8.92a36.97 36.97 0 0 1-28.24 27.73 37.34 37.34 0 0 1-29.44-5.96 36.97 36.97 0 0 1-15.48-25.84c-2.42-18.9 10.74-37 29.94-41.19l98.56-21.52a37.3 37.3 0 0 1 29.77 6.2 36.98 36.98 0 0 1 15.25 26.48Z"/>
      <path fill="#F8F294" d="M370.33 11.62a2.34 2.34 0 1 0-4.57 1l4.57-1Zm2 20.32-2.28.5 2.29-.5Zm-5.42 8.46-.5-2.29.5 2.29Zm-19.38 4.23.5 2.29-.5-2.29Zm-14.04 21.9 2.28-.48v-.02l-2.28.5Zm2.06 20.94.5 2.29 4.57-.98-.49-2.29-4.58.98Zm30.2-74.86 4.3 19.83 4.58-1-4.3-19.82-4.57 1Zm4.3 19.83a4.77 4.77 0 0 1-3.63 5.67l1 4.57a9.45 9.45 0 0 0 7.2-11.24l-4.57 1Zm-3.63 5.67-19.39 4.23 1 4.58 19.38-4.24-1-4.57Zm-19.39 4.23a20.76 20.76 0 0 0-15.83 24.7l4.57-1a16.08 16.08 0 0 1 12.26-19.12l-1-4.58ZM331.2 67.02l4.35 20.45 4.58-.98-4.36-20.44-4.57.97ZM307.55 127.7l-7.7 1.68-1.69-7.7a2.65 2.65 0 0 0-3.16-2.04l-5.32 1.17a2.65 2.65 0 0 0-2.03 3.16l1.68 7.7-7.7 1.69a2.66 2.66 0 0 0-2.03 3.16l1.16 5.32a2.65 2.65 0 0 0 3.16 2.03l7.71-1.68 1.68 7.7a2.65 2.65 0 0 0 3.16 2.03l5.33-1.16a2.65 2.65 0 0 0 2.02-3.16l-1.68-7.7 7.71-1.7a2.65 2.65 0 0 0 2.03-3.15l-1.17-5.33a2.65 2.65 0 0 0-3.16-2.03ZM392.03 95.35a5.9 5.9 0 1 0 2.5 11.51 5.9 5.9 0 0 0-2.5-11.51ZM397.82 121.89a5.9 5.9 0 1 0 2.51 11.51 5.9 5.9 0 0 0-2.5-11.51ZM408.17 105.6a5.9 5.9 0 1 0 2.51 11.51 5.9 5.9 0 0 0-2.5-11.52ZM381.66 111.52a5.9 5.9 0 1 0 2.5 11.51 5.9 5.9 0 0 0-2.5-11.52Z"/>
      <path fill="#F8F294" stroke="#F8F294" stroke-linecap="round" stroke-linejoin="round" stroke-width="4.68" d="M622.15 276.67c-6.06 3.31-8.36 10.8-5.13 16.71l16.38 30.05-3.03 1.65a2.54 2.54 0 0 0-1.06 3.43l1.61 2.95a2.53 2.53 0 0 0 3.45.97l28.02-15.3a2.54 2.54 0 0 0 1.05-3.43l-1.6-2.95a2.54 2.54 0 0 0-3.46-.97l-3.03 1.65-16.38-30.04c-3.23-5.92-10.76-8.03-16.82-4.72Z"/>
      <path fill="#F8F294" d="m617.01 293.38-2.05 1.12 2.05-1.12Zm16.39 30.05 1.12 2.05a2.34 2.34 0 0 0 .93-3.17l-2.05 1.12Zm-3.03 1.65 1.12 2.06-1.12-2.06Zm-1.06 3.43 2.06-1.12-2.06 1.12Zm1.61 2.95 2.06-1.12-2.06 1.12Zm3.45.97-1.12-2.05 1.12 2.05Zm28.02-15.3 1.12 2.05-1.12-2.05Zm1.05-3.43 2.06-1.12-2.06 1.12Zm-1.6-2.95 2.05-1.12-2.06 1.12Zm-3.46-.97-1.12-2.06 1.12 2.06Zm-3.03 1.65-2.05 1.12a2.34 2.34 0 0 0 3.18.94l-1.13-2.06Zm-16.38-30.04-2.06 1.12 2.06-1.12Zm8.68 46.01a2.34 2.34 0 1 0-4.62.79l4.62-.79Zm1.07 20.3-2.3.4.06.4.2.36 2.04-1.16Zm21.57 42.76a2.34 2.34 0 0 0 4.08-2.31l-4.08 2.3Zm-15.72-68.27a2.34 2.34 0 1 0-4.08 2.31l4.08-2.3Zm19.36 43.6a2.34 2.34 0 1 0 4.07-2.3l-4.07 2.3Zm-52.9-91.18c-7.15 3.9-9.94 12.8-6.07 19.9l4.11-2.25c-2.58-4.74-.77-10.82 4.2-13.54l-2.24-4.1Zm-6.07 19.9 16.38 30.04 4.11-2.24-16.38-30.05-4.11 2.24Zm17.32 26.86-3.03 1.66 2.24 4.1 3.03-1.65-2.24-4.1Zm-3.03 1.66a4.88 4.88 0 0 0-1.99 6.6l4.1-2.24v-.1c.02-.06.06-.11.13-.15l-2.25-4.11Zm-2 6.6 1.62 2.95 4.1-2.24-1.6-2.95-4.11 2.24Zm1.62 2.95a4.87 4.87 0 0 0 6.63 1.9l-2.25-4.1a.24.24 0 0 1-.19.02c-.05-.01-.07-.03-.08-.06l-4.11 2.24Zm6.63 1.9 28.01-15.3-2.24-4.1-28.02 15.3 2.25 4.1Zm28.01-15.3a4.88 4.88 0 0 0 1.99-6.6l-4.11 2.24c.01.02.02.05 0 .1a.25.25 0 0 1-.12.15l2.24 4.11Zm1.99-6.6-1.61-2.95-4.11 2.24 1.6 2.95 4.12-2.24Zm-1.61-2.96a4.87 4.87 0 0 0-6.63-1.9l2.24 4.11a.25.25 0 0 1 .2-.02c.04.01.07.04.08.06l4.1-2.25Zm-6.63-1.9-3.03 1.66 2.25 4.1 3.03-1.65-2.25-4.1Zm.15 2.6-16.38-30.05-4.12 2.24 16.39 30.04 4.1-2.24Zm-16.38-30.05c-3.88-7.1-12.85-9.56-20-5.66l2.24 4.11c4.98-2.72 11.06-.95 13.64 3.8l4.12-2.25Zm2 47.92 3.38 19.9 4.62-.78-3.38-19.9-4.62.78Zm3.65 20.67 23.62 41.6 4.07-2.31-23.61-41.6-4.08 2.3Zm3.81-24.36 23.44 41.3 4.07-2.32-23.43-41.29-4.08 2.31Z"/>
    </g>
  </g>
  <defs>
    <clipPath id="a">
      <path fill="#fff" d="M0 0h720v405H0z"/>
    </clipPath>
    <clipPath id="b">
      <path fill="#fff" d="M-60-67h1629.29v701.11H-60z"/>
    </clipPath>
  </defs>
</svg>
