<svg xmlns="http://www.w3.org/2000/svg" viewBox="0 0 600 500" role="img" aria-labelledby="title desc">
  <title id="title">Capacitive touch sensor module</title>
  <desc id="desc">A small capacitive touch sensor board with a gold touch pad, chip, and three pins.</desc>
  <rect width="600" height="500" fill="#ffffff"/>
  <rect x="154" y="82" width="292" height="336" rx="28" fill="#167a72" stroke="#0d4f4a" stroke-width="8"/>
  <rect x="184" y="112" width="232" height="190" rx="18" fill="#f5c451" stroke="#9b6a12" stroke-width="7"/>
  <circle cx="300" cy="207" r="66" fill="none" stroke="#fff2b0" stroke-width="15"/>
  <circle cx="300" cy="207" r="36" fill="none" stroke="#fff2b0" stroke-width="13"/>
  <circle cx="300" cy="207" r="10" fill="#fff2b0"/>
  <rect x="224" y="330" width="78" height="48" rx="8" fill="#1f2937"/>
  <line x1="236" y1="326" x2="236" y2="310" stroke="#d1d5db" stroke-width="5"/>
  <line x1="252" y1="326" x2="252" y2="310" stroke="#d1d5db" stroke-width="5"/>
  <line x1="268" y1="326" x2="268" y2="310" stroke="#d1d5db" stroke-width="5"/>
  <line x1="284" y1="326" x2="284" y2="310" stroke="#d1d5db" stroke-width="5"/>
  <line x1="236" y1="382" x2="236" y2="398" stroke="#d1d5db" stroke-width="5"/>
  <line x1="252" y1="382" x2="252" y2="398" stroke="#d1d5db" stroke-width="5"/>
  <line x1="268" y1="382" x2="268" y2="398" stroke="#d1d5db" stroke-width="5"/>
  <line x1="284" y1="382" x2="284" y2="398" stroke="#d1d5db" stroke-width="5"/>
  <circle cx="340" cy="354" r="11" fill="#c7f9ef"/>
  <circle cx="374" cy="354" r="11" fill="#c7f9ef"/>
  <circle cx="408" cy="354" r="11" fill="#c7f9ef"/>
  <line x1="340" y1="418" x2="340" y2="468" stroke="#6b7280" stroke-width="9" stroke-linecap="round"/>
  <line x1="374" y1="418" x2="374" y2="468" stroke="#6b7280" stroke-width="9" stroke-linecap="round"/>
  <line x1="408" y1="418" x2="408" y2="468" stroke="#6b7280" stroke-width="9" stroke-linecap="round"/>
  <text x="300" y="66" text-anchor="middle" font-family="Arial, Helvetica, sans-serif" font-size="30" font-weight="700" fill="#37384d">Touch sensor</text>
</svg>
