<svg xmlns="http://www.w3.org/2000/svg" viewBox="0 0 600 500" role="img" aria-labelledby="title desc">
  <title id="title">Stepper motor</title>
  <desc id="desc">A geared stepper motor with mounting tabs and a five wire connector.</desc>
  <rect width="600" height="500" fill="#ffffff"/>
  <circle cx="270" cy="248" r="118" fill="#61a7e8" stroke="#245b8f" stroke-width="9"/>
  <circle cx="270" cy="248" r="76" fill="#d7ecfb" stroke="#245b8f" stroke-width="7"/>
  <circle cx="270" cy="248" r="24" fill="#f7f3ed" stroke="#245b8f" stroke-width="6"/>
  <path d="M174 177h-64c-18 0-32 15-32 32v78c0 18 14 32 32 32h64" fill="#61a7e8" stroke="#245b8f" stroke-width="9"/>
  <path d="M366 177h64c18 0 32 15 32 32v78c0 18-14 32-32 32h-64" fill="#61a7e8" stroke="#245b8f" stroke-width="9"/>
  <circle cx="120" cy="248" r="19" fill="#ffffff" stroke="#245b8f" stroke-width="7"/>
  <circle cx="420" cy="248" r="19" fill="#ffffff" stroke="#245b8f" stroke-width="7"/>
  <path d="M366 260c50 0 68 26 105 26" fill="none" stroke="#ef4444" stroke-width="9" stroke-linecap="round"/>
  <path d="M366 244c58 0 80 1 121 1" fill="none" stroke="#f59e0b" stroke-width="9" stroke-linecap="round"/>
  <path d="M366 228c51 0 73-28 111-28" fill="none" stroke="#fbbf24" stroke-width="9" stroke-linecap="round"/>
  <path d="M366 276c44 0 63 53 99 53" fill="none" stroke="#2563eb" stroke-width="9" stroke-linecap="round"/>
  <path d="M366 292c36 0 46 86 82 86" fill="none" stroke="#111827" stroke-width="9" stroke-linecap="round"/>
  <rect x="462" y="187" width="72" height="206" rx="12" fill="#f7f3ed" stroke="#6b7280" stroke-width="7"/>
  <line x1="478" y1="216" x2="518" y2="216" stroke="#6b7280" stroke-width="7" stroke-linecap="round"/>
  <line x1="478" y1="252" x2="518" y2="252" stroke="#6b7280" stroke-width="7" stroke-linecap="round"/>
  <line x1="478" y1="288" x2="518" y2="288" stroke="#6b7280" stroke-width="7" stroke-linecap="round"/>
  <line x1="478" y1="324" x2="518" y2="324" stroke="#6b7280" stroke-width="7" stroke-linecap="round"/>
  <line x1="478" y1="360" x2="518" y2="360" stroke="#6b7280" stroke-width="7" stroke-linecap="round"/>
</svg>
